<?xml version="1.0" encoding="utf-8"?>
<!-- Generator: Adobe Illustrator 28.2.0, SVG Export Plug-In . SVG Version: 6.00 Build 0)  -->
<svg version="1.1" id="Layer_1" xmlns="http://www.w3.org/2000/svg" xmlns:xlink="http://www.w3.org/1999/xlink" x="0px" y="0px"
	 viewBox="0 0 1920 1080" style="enable-background:new 0 0 1920 1080;" xml:space="preserve">
<style type="text/css">
	.st0{fill:#FFFFFF;}
	.st1{fill:#666666;stroke:#000000;stroke-miterlimit:10;}
	.st2{fill:#3FA9F5;stroke:#000000;stroke-miterlimit:10;}
	.st3{fill:#FFFF00;stroke:#000000;stroke-miterlimit:10;}
	.st4{font-family:'MyriadPro-Regular';}
	.st5{font-size:15.6436px;}
	.st6{fill:none;stroke:#29ABE2;stroke-width:9;stroke-miterlimit:10;}
	.st7{fill:#29ABE2;}
	.st8{font-size:101.3367px;}
</style>
<g>
	<rect x="555.5" y="180.5" width="478" height="539"/>
	<path class="st0" d="M1033,181v538H556V181H1033 M1034,180H555v540h479V180L1034,180z"/>
</g>
<g>
	<polygon class="st1" points="703.17,242.53 795.39,212.52 899.84,244.05 801.5,281.03 	"/>
	<polyline class="st1" points="784.98,344.08 807.62,344.08 813.07,376.37 799.02,405.77 796.21,408.5 781.84,376.37 784.98,347.42 
			"/>
	<path class="st2" d="M661.85,312.25v5.3l-3.97,8.34l-7.6,4.55l-3.31,1.52l-6.61,7.58h11.9l6.28,1.52h3.31l-3.31,3.03l-3.8,3.18
		l-6.11,1.36h-5.95l-3.8-1.36l-5.12,10.46l8.26-3.03h8.26l1.65,1.52l-4.13,5.61l-3.31,1.36l-5.78,2.12h-4.96h-4.3l-3.31,10.15
		l9.09-4.09h8.59l-1.32,1.82l-3.97,4.24l-4.96,4.55h-10.25l-1.32,12.13l9.92-6.06l6.61-1.52l1.65,3.03l-0.99,4.55l-5.62,4.55h-3.64
		l-4.63,3.03l-3.31-0.91l-1.65,10l9.92-6.06h4.96l3.31-1.52l-3.8,7.58l-7.77,6.06l-4.96,1.52l-1.65,1.36v10.31l8.26-8.64l5.78-0.3
		h2.81l-0.33,3.33l-0.5,2.73l-4.46,6.37l-11.57,4.09l1.65,11.06l9.92-10.61l4.96-1.52h1.65v4.55v-1.52l-3.8,9.09l-5.78,5.3
		l-3.47,2.27l3.31,10.61l6.61-10.61l5.78-2.27l2.48-0.76l-1.65,10.61l-6.61,7.58l-3.31,1.52l4.96,7.58l6.61-9.09l3.31-1.52
		l1.65,1.52v4.55l-0.66,6.97l-4.3,2.12l-2.48,4.24l-1.82,1.82l4.3,6.06l1.65,3.03l3.14-9.09l5.12-4.55l1.65-1.52h1.65v9.09
		l-4.96,10.61l-1.65,1.52l6.61,9.09l1.65-10.61l6.61-6.06l2.48,5.91v6.82l-2.48,6.97l-3.31,1.52l8.26,9.09v-10.61l4.96-7.28
		l11.57,13.49l89.24-19.7l-76.02,15.16l-11.57,3.03l52.88-13.64l14.87-1.52l29.75-3.03l9.09,0.15l14.05,1.36l11.57,1.52l13.22,1.52
		l13.22,1.52l39.66,12.13l14.87,4.55l9.92,7.58l1.65-1.52l-1.65-10.61v-9.09l1.65-1.82l1.65-1.21l2.31,3.33l2.64,2.73l3.31,10.61
		l6.61-6.06l-6.45-10.61l2.97-14.55l6.45,7.58l1.98,11.52l6.61-7.58l-4.96-9.09l-1.65-12.13v-3.03l8.26,4.55l1.65,12.13l8.59-9.09
		l-10.25-9.09v-12.13l8.26,4.55l4.96,10.61l3.31-10.61l-9.92-13.64l-0.99-6.82l5.95,2.27l6.61,6.06v4.09l1.65,0.45l3.31-9.09
		l-9.92-10.61l-3.31-4.55v-6.06l9.09,3.33l4.13,5.91l3.31,5.91l0.99-11.82l-7.6-4.85l-6.61-6.06l-1.65-7.58h4.96l4.96,3.03
		l4.96,6.06h3.31l-0.83-9.4l-9.09-5.76l-4.96-4.55l-3.31-6.06l1.65-1.52l14.87,9.09v7.58v-7.58v-12.13l-8.26-3.03l-8.26-4.55
		l-4.96-6.06h3.31h6.61l3.31,1.52l1.65,3.03l4.96,3.03l-1.65-12.13l-11.57-1.52l-3.31-3.03l-3.14-1.97l-3.47-4.09h6.61h3.31
		l4.3,1.82l4.79,2.27l-2.31-8.64v-1.52h-8.26c0,0-0.66,0.3-5.29-2.12c-4.63-2.43-4.63-2.43-4.63-2.43l-4.96-3.03v-1.52l1.65-1.52
		h3.31l3.31,1.52h1.65l4.96,1.52l2.81,1.52h2.15l-1.65-3.03l-1.65-6.06l-1.65-1.52l-2.97-1.36l-3.64,1.36h-4.96l-4.96-3.03h-1.65
		l-3.31-3.03l-3.31-1.52v-1.52h1.65h4.96h1.65h4.96l6.61,1.52h1.65l-3.31-3.03l-1.65-3.03l-1.65-3.03l-4.96-4.55l-4.96-1.52
		l-1.65-3.03l-2.15-3.94l-1.16-3.64v-1.52v-3.03h2.31l7.6,3.03l3.31,4.55l1.65,3.03l3.31,3.03v6.06l1.65,3.03
		c0,0,3.31,16.67,4.96,6.06s1.65-10.61,1.65-10.61l4.96-4.55l3.31-1.52c0,0-0.66-2.88,0.5,3.03c1.16,6.06,1.16,6.06,1.16,6.06v6.06
		l-3.31,4.55l-3.31,4.55l3.64,12.13l3.14-11.97l4.79-4.7l1.65-1.67l1.65,0.15l1.65,4.55v5c0,0,4.96-1.97,0,3.33
		c-4.96,5.3-4.96,6.82-4.96,6.82l-1.82,2.43l-3.14,2.12l3.14,10.15l5.12-10.15l9.92-4.55v6.67l-1.65,3.94l-1.98,4.09l-2.97,3.49
		l-3.31,1.52l-1.65,1.52v10.61l3.31-3.03l4.96-6.06l6.61-3.03l1.65,7.58l-1.65,4.55c0,0,0,4.55-6.61,6.06
		c-6.61,1.52-6.61,1.52-6.61,1.52c4.96-0.76-2.64,20.16,0,12.13c4.46-13.34,11.57-9.09,11.57-9.09l6.61-1.52l-0.66,6.06l-2.64,4.55
		l-4.96,4.55c0,0,1.65,0-3.31,1.52c-4.96,1.52-4.96,1.52-4.96,1.52l1.65,9.09l6.11-6.06l3.8-1.82h3.97l0.99,3.03c0,0,3.31,2.27,0,5
		c-3.31,2.88,1.65-0.15-3.31,2.88c-4.96,3.03-4.96,3.03-4.96,3.03l-4.96,1.52l-4.96,1.52l-1.65,10.61l8.26-7.58h9.92v6.06
		l-7.77,6.82c0,0-2.15,2.27-7.11,2.27s-4.96,0-4.96,0L967.76,467l9.92-6.06h6.61h1.65V467l-6.61,6.06l-4.96,1.52h-8.26l-3.31,1.52
		l-3.31,9.09l8.26-4.55h9.92h1.65h1.65l-1.65,4.55c0,0,1.65-1.52-1.65,1.52s-3.31,3.03-3.31,3.03h-1.65l-4.96,3.03h-3.31h-4.96
		l-3.47-1.52l-6.45,9.09h8.26l4.96-1.52l3.31,1.52h3.31v3.03l-3.31,1.52l-4.96,3.03l-4.96,1.52h-6.61l-4.96-1.52
		c0,0,0,1.52-3.31,4.55s-3.31,3.03-3.31,3.03h8.26h6.61l3.31,1.52h3.31l-1.65,3.03l-3.31,3.03l-3.31,1.52c0,0,0,0-6.61,0
		c-6.61,0-3.31,0-6.61,0s-4.96,0-4.96,0h-1.65l-8.26,6.06h16.53l3.31,1.52l1.65,1.52l-1.65,3.03c0,0,1.65,0-3.31,1.52
		c-4.96,1.52-4.96,1.52-4.96,1.52h-5.95h-2.81l25.29,16.67v1.52l-13.22,15.16l21.48,16.67l-22.81,7.58l-6.61,22.73l-36.69-25.77
		l8.26-16.67l-14.87-9.09l-8.26-3.03l-16.53-6.06l-11.57-4.55l-46.27-7.58c0,0,0-1.52-18.18,0c-18.18,1.52-18.18,1.52-18.18,1.52
		s6.61-3.03-6.61,0s0,1.52-13.22,3.03c-13.22,1.52,1.65-3.03-13.22,1.52c-14.87,4.55-14.87,4.55-14.87,4.55L706.64,564l-11.57,4.55
		c0,0,1.65-1.52-6.61,3.03c-8.26,4.55-8.26,4.55-8.26,4.55l9.92,16.67l-14.87,10.61l-21.15,16.67h-1.65l-1.82-1.52v-21.22
		l-1.65-3.03l-24.79-3.03l-1.65-1.52l14.87-12.13l4.96-3.03l3.31-1.52l-13.22-18.19l13.22-10.61l14.87-3.03l-6.61-1.52l-4.96-3.03
		l-1.65-4.55h8.26l4.96-1.52h3.31h4.13l-5.78-7.58l-3.31,1.52h-6.61h-4.96l-8.26-3.03l-6.61-3.03l4.96-3.03H644h6.61l6.61,1.52
		l-8.26-7.58h-6.61c0,0,3.31,1.52-4.96,0c-8.26-1.52-8.26-1.52-8.26-1.52l-6.61-6.06l6.61-3.03h8.26l6.61,3.03l1.65,1.52
		l-8.26-10.61h-8.26l-8.26-3.03l-6.61-6.06l-1.65-1.52l9.92-1.52l9.92,1.52l3.31,1.52l-6.61-9.09l-9.92,1.52l-16.36-11.97l4.13-3.03
		l7.27,1.36h3.31h-8.26l16.53,4.55l-3.31-10.61l-6.61-1.52l-4.96-1.52l-5.78-3.03l-2.48-3.03l-1.65-3.03v-3.18l4.96,1.67h4.96
		l3.31,1.52l1.65,1.52l1.65,3.03l3.31,1.52l-4.96-11.82l-3.31-1.52l-6.61-1.82l-6.61-12.13v-3.49l5.95,1.67l3.97,1.82l4.96,3.03
		l3.14,4.09l0.17-11.67c0,0,3.31,4.55-3.31,0c-6.61-4.55-8.26-6.06-8.26-6.06l-4.96-6.06l-1.65-5.15l4.96,0.61l8.26,3.03l3.31,3.03
		l1.65,4.55v-12.13l-6.61-3.03l-3.31-4.55l-3.31-4.55l-1.65-6.06l1.65-1.52h3.31l4.96,3.03v1.52l3.31,4.55l1.65,1.52l1.65,1.52
		l1.65-9.09l-3.31-3.03l-3.31-3.03c0,0-1.65,0-3.31-4.55s-1.65-4.55-1.65-4.55v-3.03v-3.03l3.97,0.91l2.64,2.12l3.31,1.52l1.65,1.52
		v4.55l1.65,1.52v1.52l3.31-7.58l1.65-3.03l-9.92-7.58l-1.16-10.46l1.16-4.7v-1.52l4.96,4.55l2.81,1.67l2.15,4.4l1.65,1.52
		l1.65,4.55l4.3-10.46l-4.3-3.18l-3.31-6.06l-1.65-6.06l1.32-6.06l0.33-3.03l4.96,1.52l1.65,3.03l3.31,3.03l1.65,3.03v1.52
		l6.61-6.06v-4.55l2.64-5.46l3.97-3.64l4.96-3.03l3.47-1.52"/>
	<polygon class="st2" points="664.83,360.15 674.58,360.15 678.38,378.94 683.34,413.8 689.45,450.94 691.6,468.37 704.16,468.37 
		715.56,468.37 736.39,468.37 751.1,472.91 769.44,484.73 777.21,494.43 769.44,487.46 762.66,485.04 756.05,480.49 749.44,478.97 
		741.18,475.94 729.61,475.94 721.02,475.64 713.09,475.94 698.21,477.46 688.3,480.49 684.99,481.55 680.03,482.01 	"/>
	<polyline class="st2" points="700.69,351.66 713.58,351.66 718.87,444.11 739.36,444.11 750.77,446.39 763.49,450.18 
		776.88,457.76 789.6,468.06 792.25,475.94 784.98,466.85 778.53,463.82 770.93,457.76 756.88,454.72 748.62,453.21 725.48,451.69 
		718.87,451.69 707.3,453.21 700.69,350.14 	"/>
	<polygon class="st2" points="877.36,350.14 889.42,350.14 883.31,452.91 883.31,453.21 860.17,451.69 847.94,453.21 842.16,453.21 
		836.54,453.21 822.82,457.76 813.9,463.82 801.17,475.94 803.98,466.85 823.81,453.21 832.08,450.18 846.95,446.39 852.73,446.39 
		871.74,442.6 	"/>
	<path class="st2" d="M912.56,360.15l-16.03,106.4c0,0.15-0.17,0.45-0.17,0.61l-0.83,1.52c-0.33,0.76-1.16,1.21-1.98,1.21h-9.92
		h-5.62h-8.76H861h-5.62h-4.79c-0.17,0-0.33,0-0.5,0l-6.45,1.52l-6.45,1.52h-0.17l-4.79,1.52c-0.17,0-0.17,0-0.33,0.15l-6.11,2.88
		c-0.17,0.15-0.33,0.15-0.5,0.3l-6.28,5.61l-5.29,5.15l14.21-7.88c0.17,0,0.17-0.15,0.33-0.15c0,0,7.6-3.03,7.77-3.03l8.1,1.52
		l6.28-3.64c0.17,0,0.33,0,0.5,0l7.77,0.61c0.17,0,0.17,0,0.33,0l4.3-0.3c0.17,0,0.17,0,0.33,0l5.12,0.3h0.17h6.11
		c0.17,0,0.5,0,0.66,0.15l12.73,2.88h0.17l6.11,1.52l9.42,2.42c1.32,0.3,2.64-0.45,2.81-1.82l15.37-120.95"/>
	<path class="st1" d="M747.79,268.3l51.07,21.83l56.85-21.83v39.41l-0.5,3.03h-59.16h-26.28c0,0-6.61,0-15.2,0s-8.59,0-8.59,0
		v-21.22v-10.61L747.79,268.3z"/>
	<polyline class="st2" points="785.8,316.8 785.8,332.26 785.8,337.41 796.87,337.41 804.81,337.41 809.1,337.41 809.1,331.81 
		809.1,327.11 809.1,322.56 809.1,317.71 801.01,316.8 787.45,316.8 	"/>
	<polygon class="st3" points="682.51,534.3 688.13,543.24 700.69,544.75 691.6,551.73 693.75,561.58 682.51,556.88 671.27,561.58 
		673.42,551.73 664.33,544.75 676.89,543.24 	"/>
	<polygon class="st3" points="905.62,538.54 911.24,547.48 923.8,549 914.71,555.97 916.86,565.82 905.62,561.12 894.38,565.82 
		896.53,555.97 887.44,549 900,547.48 	"/>
</g>
<text transform="matrix(0.8486 0 0 1 700.6899 538.5396)" class="st4 st5">COURSES MANAGEMENT SYSTEM</text>
<ellipse class="st6" cx="798.11" cy="451" rx="228.89" ry="261"/>
<text transform="matrix(1.1619 0 0 1 682.9995 629.666)" class="st7 st4 st8">CMS</text>
</svg>
